<svg width="215" height="40" viewBox="0 0 215 40" fill="none" xmlns="http://www.w3.org/2000/svg">
<rect x="0.5" width="214" height="40" rx="20" fill="#141414"/>
<path d="M37.4511 25.192C36.6297 25.192 35.9044 25.0533 35.2751 24.776C34.6457 24.488 34.1497 24.0827 33.7871 23.56C33.4244 23.0267 33.2377 22.3813 33.2271 21.624H35.3871C35.4084 22.1467 35.5951 22.5893 35.9471 22.952C36.3097 23.304 36.8057 23.48 37.4351 23.48C37.9791 23.48 38.4111 23.352 38.7311 23.096C39.0511 22.8293 39.2111 22.4773 39.2111 22.04C39.2111 21.5813 39.0671 21.224 38.7791 20.968C38.5017 20.712 38.1284 20.504 37.6591 20.344C37.1897 20.184 36.6884 20.0133 36.1551 19.832C35.2911 19.5333 34.6297 19.1493 34.1711 18.68C33.7231 18.2107 33.4991 17.5867 33.4991 16.808C33.4884 16.1467 33.6431 15.5813 33.9631 15.112C34.2937 14.632 34.7417 14.264 35.3071 14.008C35.8724 13.7413 36.5231 13.608 37.2591 13.608C38.0057 13.608 38.6617 13.7413 39.2271 14.008C39.8031 14.2747 40.2511 14.648 40.5711 15.128C40.9017 15.608 41.0777 16.1787 41.0991 16.84H38.9071C38.8964 16.4453 38.7417 16.0987 38.4431 15.8C38.1551 15.4907 37.7497 15.336 37.2271 15.336C36.7791 15.3253 36.4004 15.4373 36.0911 15.672C35.7924 15.896 35.6431 16.2267 35.6431 16.664C35.6431 17.0373 35.7604 17.336 35.9951 17.56C36.2297 17.7733 36.5497 17.9547 36.9551 18.104C37.3604 18.2533 37.8244 18.4133 38.3471 18.584C38.9017 18.776 39.4084 19 39.8671 19.256C40.3257 19.512 40.6937 19.8533 40.9711 20.28C41.2484 20.696 41.3871 21.2347 41.3871 21.896C41.3871 22.4827 41.2377 23.0267 40.9391 23.528C40.6404 24.0293 40.1977 24.4347 39.6111 24.744C39.0244 25.0427 38.3044 25.192 37.4511 25.192ZM46.1019 25.192C45.1099 25.192 44.3419 24.8827 43.7979 24.264C43.2646 23.6453 42.9979 22.7387 42.9979 21.544V17.064H45.0299V21.352C45.0299 22.0347 45.1686 22.5573 45.4459 22.92C45.7233 23.2827 46.1606 23.464 46.7579 23.464C47.3233 23.464 47.7873 23.2613 48.1499 22.856C48.5233 22.4507 48.7099 21.8853 48.7099 21.16V17.064H50.7579V25H48.9499L48.7899 23.656C48.5446 24.1253 48.1873 24.4987 47.7179 24.776C47.2593 25.0533 46.7206 25.192 46.1019 25.192ZM57.5643 25.192C56.967 25.192 56.4443 25.08 55.9963 24.856C55.5483 24.632 55.1856 24.3173 54.9083 23.912L54.6843 25H52.8603V13.48H54.9083V18.2C55.1643 17.848 55.5003 17.5387 55.9163 17.272C56.343 17.0053 56.8923 16.872 57.5643 16.872C58.311 16.872 58.9776 17.0533 59.5643 17.416C60.151 17.7787 60.615 18.2747 60.9563 18.904C61.2976 19.5333 61.4683 20.248 61.4683 21.048C61.4683 21.848 61.2976 22.5627 60.9563 23.192C60.615 23.8107 60.151 24.3013 59.5643 24.664C58.9776 25.016 58.311 25.192 57.5643 25.192ZM57.1323 23.4C57.783 23.4 58.3216 23.1813 58.7483 22.744C59.175 22.3067 59.3883 21.7413 59.3883 21.048C59.3883 20.3547 59.175 19.784 58.7483 19.336C58.3216 18.888 57.783 18.664 57.1323 18.664C56.471 18.664 55.927 18.888 55.5003 19.336C55.0843 19.7733 54.8763 20.3387 54.8763 21.032C54.8763 21.7253 55.0843 22.296 55.5003 22.744C55.927 23.1813 56.471 23.4 57.1323 23.4ZM66.5778 25.192C65.8738 25.192 65.2551 25.08 64.7218 24.856C64.1885 24.6213 63.7618 24.3013 63.4418 23.896C63.1218 23.4907 62.9298 23.0213 62.8658 22.488H64.9298C64.9938 22.7973 65.1645 23.064 65.4418 23.288C65.7298 23.5013 66.0978 23.608 66.5458 23.608C66.9938 23.608 67.3191 23.5173 67.5218 23.336C67.7351 23.1547 67.8418 22.9467 67.8418 22.712C67.8418 22.3707 67.6925 22.1413 67.3938 22.024C67.0951 21.896 66.6791 21.7733 66.1458 21.656C65.8045 21.5813 65.4578 21.4907 65.1058 21.384C64.7538 21.2773 64.4285 21.144 64.1298 20.984C63.8418 20.8133 63.6071 20.6 63.4258 20.344C63.2445 20.0773 63.1538 19.752 63.1538 19.368C63.1538 18.664 63.4311 18.072 63.9858 17.592C64.5511 17.112 65.3405 16.872 66.3538 16.872C67.2925 16.872 68.0391 17.0907 68.5938 17.528C69.1591 17.9653 69.4951 18.568 69.6018 19.336H67.6658C67.5485 18.7493 67.1058 18.456 66.3378 18.456C65.9538 18.456 65.6551 18.5307 65.4418 18.68C65.2391 18.8293 65.1378 19.016 65.1378 19.24C65.1378 19.4747 65.2925 19.6613 65.6018 19.8C65.9111 19.9387 66.3218 20.0667 66.8338 20.184C67.3885 20.312 67.8951 20.456 68.3538 20.616C68.8231 20.7653 69.1965 20.9947 69.4738 21.304C69.7511 21.6027 69.8898 22.0347 69.8898 22.6C69.9005 23.0907 69.7725 23.5333 69.5058 23.928C69.2391 24.3227 68.8551 24.632 68.3538 24.856C67.8525 25.08 67.2605 25.192 66.5778 25.192ZM75.5921 25.192C74.7814 25.192 74.0667 25.016 73.4481 24.664C72.8294 24.312 72.3387 23.8213 71.9761 23.192C71.6241 22.5627 71.4481 21.8427 71.4481 21.032C71.4481 20.2213 71.6241 19.5013 71.9761 18.872C72.3387 18.2427 72.8294 17.752 73.4481 17.4C74.0667 17.048 74.7814 16.872 75.5921 16.872C76.6054 16.872 77.4587 17.1387 78.1521 17.672C78.8454 18.1947 79.2881 18.92 79.4801 19.848H77.3201C77.2134 19.464 77.0001 19.1653 76.6801 18.952C76.3707 18.728 76.0027 18.616 75.5761 18.616C75.0107 18.616 74.5307 18.8293 74.1361 19.256C73.7414 19.6827 73.5441 20.2747 73.5441 21.032C73.5441 21.7893 73.7414 22.3813 74.1361 22.808C74.5307 23.2347 75.0107 23.448 75.5761 23.448C76.0027 23.448 76.3707 23.3413 76.6801 23.128C77.0001 22.9147 77.2134 22.6107 77.3201 22.216H79.4801C79.2881 23.112 78.8454 23.832 78.1521 24.376C77.4587 24.92 76.6054 25.192 75.5921 25.192ZM81.2978 25V17.064H83.1218L83.3138 18.552C83.6018 18.04 83.9911 17.6347 84.4818 17.336C84.9831 17.0267 85.5698 16.872 86.2418 16.872V19.032H85.6658C85.2178 19.032 84.8178 19.1013 84.4658 19.24C84.1138 19.3787 83.8365 19.6187 83.6338 19.96C83.4418 20.3013 83.3458 20.776 83.3458 21.384V25H81.2978ZM88.7456 15.832C88.3722 15.832 88.0629 15.72 87.8176 15.496C87.5829 15.272 87.4656 14.9893 87.4656 14.648C87.4656 14.3067 87.5829 14.0293 87.8176 13.816C88.0629 13.592 88.3722 13.48 88.7456 13.48C89.1189 13.48 89.4229 13.592 89.6576 13.816C89.9029 14.0293 90.0256 14.3067 90.0256 14.648C90.0256 14.9893 89.9029 15.272 89.6576 15.496C89.4229 15.72 89.1189 15.832 88.7456 15.832ZM87.7216 25V17.064H89.7696V25H87.7216ZM96.6112 25.192C96.0139 25.192 95.4912 25.08 95.0432 24.856C94.5952 24.632 94.2325 24.3173 93.9552 23.912L93.7312 25H91.9072V13.48H93.9552V18.2C94.2112 17.848 94.5472 17.5387 94.9632 17.272C95.3899 17.0053 95.9392 16.872 96.6112 16.872C97.3579 16.872 98.0245 17.0533 98.6112 17.416C99.1979 17.7787 99.6619 18.2747 100.003 18.904C100.345 19.5333 100.515 20.248 100.515 21.048C100.515 21.848 100.345 22.5627 100.003 23.192C99.6619 23.8107 99.1979 24.3013 98.6112 24.664C98.0245 25.016 97.3579 25.192 96.6112 25.192ZM96.1792 23.4C96.8299 23.4 97.3685 23.1813 97.7952 22.744C98.2219 22.3067 98.4352 21.7413 98.4352 21.048C98.4352 20.3547 98.2219 19.784 97.7952 19.336C97.3685 18.888 96.8299 18.664 96.1792 18.664C95.5179 18.664 94.9739 18.888 94.5472 19.336C94.1312 19.7733 93.9232 20.3387 93.9232 21.032C93.9232 21.7253 94.1312 22.296 94.5472 22.744C94.9739 23.1813 95.5179 23.4 96.1792 23.4ZM106.201 25.192C105.401 25.192 104.691 25.0213 104.073 24.68C103.454 24.3387 102.969 23.8587 102.617 23.24C102.265 22.6213 102.089 21.9067 102.089 21.096C102.089 20.2747 102.259 19.544 102.601 18.904C102.953 18.264 103.433 17.768 104.041 17.416C104.659 17.0533 105.385 16.872 106.217 16.872C106.995 16.872 107.683 17.0427 108.281 17.384C108.878 17.7253 109.342 18.1947 109.673 18.792C110.014 19.3787 110.185 20.0347 110.185 20.76C110.185 20.8773 110.179 21 110.169 21.128C110.169 21.256 110.163 21.3893 110.153 21.528H104.121C104.163 22.1467 104.377 22.632 104.761 22.984C105.155 23.336 105.63 23.512 106.185 23.512C106.601 23.512 106.947 23.4213 107.225 23.24C107.513 23.048 107.726 22.8027 107.865 22.504H109.945C109.795 23.0053 109.545 23.464 109.193 23.88C108.851 24.2853 108.425 24.6053 107.913 24.84C107.411 25.0747 106.841 25.192 106.201 25.192ZM106.217 18.536C105.715 18.536 105.273 18.68 104.889 18.968C104.505 19.2453 104.259 19.672 104.153 20.248H108.105C108.073 19.7253 107.881 19.3093 107.529 19C107.177 18.6907 106.739 18.536 106.217 18.536ZM115.768 25V13.8H117.816L123.08 21.688V13.8H125.128V25H123.08L117.816 17.128V25H115.768ZM131.059 25.192C130.291 25.192 129.598 25.016 128.979 24.664C128.371 24.312 127.886 23.8267 127.523 23.208C127.171 22.5787 126.995 21.8533 126.995 21.032C126.995 20.2107 127.176 19.4907 127.539 18.872C127.902 18.2427 128.387 17.752 128.995 17.4C129.614 17.048 130.307 16.872 131.075 16.872C131.832 16.872 132.515 17.048 133.123 17.4C133.742 17.752 134.227 18.2427 134.579 18.872C134.942 19.4907 135.123 20.2107 135.123 21.032C135.123 21.8533 134.942 22.5787 134.579 23.208C134.227 23.8267 133.742 24.312 133.123 24.664C132.504 25.016 131.816 25.192 131.059 25.192ZM131.059 23.416C131.592 23.416 132.056 23.2187 132.451 22.824C132.846 22.4187 133.043 21.8213 133.043 21.032C133.043 20.2427 132.846 19.6507 132.451 19.256C132.056 18.8507 131.598 18.648 131.075 18.648C130.531 18.648 130.062 18.8507 129.667 19.256C129.283 19.6507 129.091 20.2427 129.091 21.032C129.091 21.8213 129.283 22.4187 129.667 22.824C130.062 23.2187 130.526 23.416 131.059 23.416ZM138.225 25L135.905 17.064H137.937L139.313 22.776L140.913 17.064H143.185L144.785 22.776L146.177 17.064H148.209L145.873 25H143.745L142.049 19.064L140.353 25H138.225Z" fill="white"/>
<path d="M182.854 20.3536C183.049 20.1583 183.049 19.8417 182.854 19.6464L179.672 16.4645C179.476 16.2692 179.16 16.2692 178.964 16.4645C178.769 16.6597 178.769 16.9763 178.964 17.1716L181.793 20L178.964 22.8284C178.769 23.0237 178.769 23.3403 178.964 23.5355C179.16 23.7308 179.476 23.7308 179.672 23.5355L182.854 20.3536ZM158.5 20.5H182.5V19.5H158.5V20.5Z" fill="white"/>
</svg>
