<svg width="17" height="16" viewBox="0 0 17 16" fill="none" xmlns="http://www.w3.org/2000/svg">
<path d="M8.50009 0C5.55934 0 3.16675 2.39259 3.16675 5.33334C3.16675 6.21616 3.38747 7.09147 3.80706 7.86784L8.20844 15.8281C8.26703 15.9342 8.37869 16 8.50009 16C8.6215 16 8.73315 15.9342 8.79175 15.8281L13.1947 7.86522C13.6127 7.09147 13.8334 6.21613 13.8334 5.33331C13.8334 2.39259 11.4408 0 8.50009 0ZM8.50009 8C7.02972 8 5.83344 6.80372 5.83344 5.33334C5.83344 3.86297 7.02972 2.66669 8.50009 2.66669C9.97047 2.66669 11.1667 3.86297 11.1667 5.33334C11.1667 6.80372 9.97047 8 8.50009 8Z" fill="white"/>
</svg>
