<svg width="17" height="16" viewBox="0 0 17 16" fill="none" xmlns="http://www.w3.org/2000/svg">
<g clip-path="url(#clip0_13_1643)">
<path d="M14.2859 11.1361C13.3193 10.3094 12.3384 9.80864 11.3837 10.6341L10.8136 11.133C10.3965 11.4951 9.62104 13.1872 6.62272 9.73808C3.62502 6.29332 5.40891 5.75697 5.82662 5.39795L6.39981 4.89843C7.34951 4.07112 6.99111 3.02963 6.30616 1.95755L5.89281 1.30819C5.20473 0.238608 4.45546 -0.463831 3.50327 0.362237L2.98877 0.811798C2.56793 1.11837 1.39158 2.1149 1.10623 4.00805C0.762819 6.27958 1.84614 8.88079 4.32809 11.7349C6.80692 14.5902 9.23392 16.0244 11.5329 15.9995C13.4436 15.9789 14.5974 14.9536 14.9583 14.5809L15.4747 14.1307C16.4244 13.3052 15.8344 12.4648 14.8672 11.6362L14.2859 11.1361Z" fill="white"/>
</g>
<defs>
<clipPath id="clip0_13_1643">
<rect width="16" height="16" fill="white" transform="translate(0.5)"/>
</clipPath>
</defs>
</svg>
