<svg width="40" height="40" viewBox="0 0 40 40" fill="none" xmlns="http://www.w3.org/2000/svg">
<path d="M32.1667 10.5001C33.8334 12.3334 34.8334 14.3334 34.8334 17.6667C34.8334 23.5001 30.6667 28.6667 24.8334 31.3334L23.3334 29.1667C28.8334 26.1667 30.0001 22.3334 30.3334 19.8334C29.5001 20.3334 28.3334 20.5001 27.1667 20.3334C24.1667 20.0001 21.8334 17.6667 21.8334 14.5001C21.8334 13.0001 22.5001 11.5001 23.5001 10.3334C24.6667 9.16675 26.0001 8.66675 27.6667 8.66675C29.5001 8.66675 31.1667 9.50008 32.1667 10.5001ZM15.5001 10.5001C17.1667 12.3334 18.1667 14.3334 18.1667 17.6667C18.1667 23.5001 14.0001 28.6667 8.16675 31.3334L6.66675 29.1667C12.1667 26.1667 13.3334 22.3334 13.6667 19.8334C12.8334 20.3334 11.6667 20.5001 10.5001 20.3334C7.50008 20.0001 5.16675 17.5001 5.16675 14.5001C5.16675 13.0001 5.83341 11.5001 6.83341 10.3334C8.00008 9.16675 9.33342 8.66675 11.0001 8.66675C12.8334 8.66675 14.5001 9.50008 15.5001 10.5001Z" fill="#141414"/>
</svg>
